<?xml version="1.0" encoding="utf-8"?>
<!-- Generator: Adobe Illustrator 27.2.0, SVG Export Plug-In . SVG Version: 6.00 Build 0)  -->
<svg version="1.1" id="Layer_1" xmlns="http://www.w3.org/2000/svg" xmlns:xlink="http://www.w3.org/1999/xlink" x="0px" y="0px"
	 viewBox="0 0 850.4 1417.3" style="enable-background:new 0 0 850.4 1417.3;" xml:space="preserve">
<style type="text/css">
	.st0{fill:#FFFFFF;}
	.st1{fill:#CCCCCC;}
	.st2{fill:#F2F2F2;}
	.st3{fill:#2F2E41;}
	.st4{fill:#6C63FF;}
	.st5{fill:#FEB8B9;}
</style>
<g>
	<path class="st0" d="M425,999.2c-137.1,0-274.3,0-411.4,0.1c-3.7,0-4.6-0.8-4.6-4.6c0.1-190.9,0.1-381.9,0-572.8
		c0-3.7,0.8-4.6,4.6-4.6c274.3,0.1,548.5,0.1,822.8,0c3.7,0,4.6,0.8,4.6,4.6c-0.1,190.9-0.1,381.9,0,572.8c0,3.7-0.8,4.6-4.6,4.6
		C699.3,999.2,562.1,999.2,425,999.2z M634.1,873.3c1.2-1.7,1.7-3.2-1-4c-1.1-14.7-2.1-29.3-3.2-44c1.3,0,2.6-0.1,3.9-0.1
		c1.3,0.1,2.1-0.4,2.2-1.7c1.5-1,2.8-2.3,3.2-4.1c2.8-2,2.8-4,0-6c-0.4-1.3-0.9-2.6-1.3-3.9c0-4.3,0.1-8.7,0-13
		c0-1.5,0.7-3.5-1.7-4.1c0-1,0-2.1,0-3.1c1.7-3.7,0.5-7.5,0.7-11.3c0.1-1.6,0.9-3.8-1.6-4.6c-0.1-4.3-0.1-8.7-0.2-13
		c1.4-1.4,0.7-3.1,0.9-4.7c0.6-4.8-1.3-9.5-1.1-14.3c3.3-1.1,5.3-2.7,3.4-6.7c-0.7-1.5-0.3-3.5-0.5-5.3c0.9-5.6,0.1-10.9-2.9-15.8
		c-1.9-7.4-0.6-16.5-8.5-21c-6.6-3.7-12.9-8.2-20.4-10.3c-0.1-1.2-0.8-1.8-2-1.9c-0.1-2.8-0.2-5.5-0.2-8.3c0-0.2,0.1-0.5,0.1-0.7
		c1.5,0.1,3,0.1,3.1-2.1c1.3-1.3,2.6-2.7,3.9-4c1.5-0.4,4-0.1,2.1-3c0-2.1,1.6-3,2.9-4c1.4-0.2,2.7-0.4,0.9-2
		c-0.2-7.8,2.2-15.9-3.6-23.1c-2.4-2.9-6-3.9-8.2-6.8c0.1-1.8-1.9-2.5-2-4.4c-0.4-11.2-3.8-21.6-7.8-32
		c-5.2-13.5-12.7-25.5-22.3-36.1c-11.5-12.8-24.9-23.1-40.6-30.6c-14.4-6.8-29.6-10.7-45.3-11.7c-14.9-1-29.9-0.2-44.9-0.2
		c-1.7,0-3.7-0.7-5.1,1.1c-8.9-0.7-17.8-2.1-26.7-1.8c-11.1,0.5-22.2,1.7-32.9,5.8c-8.8,3.4-17.7,6.2-26,10.9
		c-12.3,6.8-22.9,15.6-32.4,25.9c-1.9,0.1-2.9,1.1-2.9,3c-5.5,7.2-10.6,14.7-14.9,22.7c-6,11-10,22.9-12,35.3c-1.6,1.1-1,2.7-1,4.2
		c0,1-0.1,1.9-0.1,2.9c-1.5,4.6-2,9.3-2,14c0,75.9,0,151.9,0,227.8c0,8.1,0,8.1-7.9,9.1c-0.8,0.1-1.6,0.4-2.4,0.6
		c-9.2,2.4-16.3,7.8-21.8,15.5c-0.8,1.1-1.5,2.7-2.9,2.3c-1.7-0.4-0.8-2.3-1-3.5c-2.2-14.2-2.7-28.6-6.2-42.6
		c-2.5-10-5-19.9-9.3-29.3c-9.9-21.5-25.7-37.6-46.7-48.6c-13-6.8-27.1-10-41.5-10.2c-11.9-0.1-23.6,3-34.7,7.7
		c-3.3,1.4-3,3.2-0.8,5.2c4.2,3.7,8.8,7.1,12.8,11c11.4,10.9,23.1,21.5,33.6,33.3c10.3,11.5,20.4,23.2,29.6,35.5
		c13.4,17.8,25.3,36.6,36,56.2c8.7,15.9,16.8,31.9,23.5,48.7c1,2.5,2.2,3.2,4.8,3.2c10.2-0.1,20.3-0.1,30.5,0c1.8,0,4.3-0.8,4.4,2.4
		c-2,0.1-4,0.4-5.9,0.4c-41.5,0-83,0.1-124.4,0.1c-1.8,0-3.9-0.9-5.7,1.6c214.1,0,427.8,0,642.5,0c-2.4-2.1-4.3-1.6-6-1.6
		c-10.3,0-20.7,0.1-31,0c-12.8-0.2-25.6,0.6-38.4-0.4c-0.7-1.5-2-1.5-3.4-1.5c-5.3,0-10.6,0-15.9,0c-1.2,0-2.4-0.1-2.9,1.4
		c-19.7,1.2-39.5,0.2-59.3,0.5c-1.7,0-2.8-0.9-2.5-2.9c3.4-1.1,0.9-4.1,2.1-5.9c3.9,5.6,4.5,5.9,11.7,5.9c9.8,0,19.7-0.4,29.5,0.2
		c5.6,0.3,8.2-2,9.9-6.7c5-14.3,12.6-27.4,20.3-40.2c19.9-33.1,44.3-62.4,74.3-86.8c2.4-2,3-3.8-0.6-5.5
		c-11.9-5.3-24.3-6.3-36.9-3.9c-18.6,3.6-33.5,13.9-44.2,29c-13.2,18.7-16.4,40.8-18.2,63c-0.1,1.4,0.8,3.4-0.7,4.1
		c-1.9,0.9-2.2-1.5-3-2.5c-9.4-11.8-23.2-14.2-34.5-8.1c-3.5,1.9-5.7,5.1-8.8,7.4c-0.1-9.9-0.1-19.7-0.2-29.6
		C633.8,876.2,633.9,874.7,634.1,873.3z M225.9,957.2c4,0,8,0,12,0c2.8,0,3.8-1.2,2.7-3.7c-3.9-8.6-7.5-17.3-11.8-25.7
		c-11-21.4-22.8-42.3-36.7-62.1c-13.2-18.7-27.6-36.5-43.3-53.2c-13.9-14.7-28.6-28.7-44.3-41.6c-2.3-1.9-3.8-1.4-5.6,0
		c-5.8,4.3-11.5,8.7-16.5,14.2c-12.3,13.6-18.7,29.8-20.1,47.7c-1.8,23.1,6.3,43.1,22,59.9c9.9,10.6,21.7,18.7,34,26.5
		c20.1,12.6,41.4,22.4,64,29.5C196.5,953.2,210.6,958.1,225.9,957.2z M703.4,957.2c4.1-0.5,9.1,0.8,14-0.7
		c12.9-3.8,25.6-7.9,37.8-13.8c18-8.7,35.1-18.6,48.5-33.8c9.6-10.9,14.5-24.1,13.9-38.2c-0.9-19.7-9.6-35.9-26.6-47
		c-2.4-1.6-3.7-1.3-5.5,0.4c-4,3.8-7.9,7.6-12.1,11.1c-15.2,12.8-28.2,27.7-40.4,43.2c-9.5,12-17.7,24.8-25.5,37.9
		c-7.1,12-12.8,24.7-18.7,37.3c-1.2,2.6-0.5,3.7,2.3,3.7C694.9,957.2,698.8,957.2,703.4,957.2z"/>
	<path class="st1" d="M288,621.3c0-1,0.1-1.9,0.1-2.9c2.4-0.9,2.3-2.4,1-4.2c2-12.5,6-24.3,12-35.3c4.3-7.9,9.4-15.4,14.9-22.7
		c1.8-0.2,2.9-1.1,2.9-3c9.5-10.3,20.1-19.1,32.4-25.9c8.3-4.6,17.2-7.5,26-10.9c10.7-4.1,21.8-5.3,32.9-5.8
		c8.9-0.4,17.8,1.1,26.7,1.8c7.6,2.8,15.5,4.5,22.9,7.8c9.7,4.4,19.4,8.9,27.8,15.4c14,10.9,25.9,23.7,34.7,39.4
		c9.6,17.1,15.9,34.8,15.8,54.8c-0.2,44.5,0,88.9,0,133.4c-1.9,9.4-5.6,18.2-9.1,27.1c-0.4,1.1-1.4,1.9-2.7,1.9c-3-3.5-7-3.3-11-3
		c-6.6,0.6-11.4,5.8-11.9,12.4c-0.4,6.6,4.2,12.6,11.1,14.6c5.1,1.4,12.1-2,14.6-7c3,0.2,5.9,0,8.8-1c0,50.4,0,100.8,0.1,151.2
		c-1.6,1.3-3.5,0.7-5.3,0.7c-79.8,0-159.5,0-239.3,0c-1.8,0-3.7,0.3-5.4-0.5c0-104.8,0-209.5,0-314.3c0-6.5-0.7-13,0.8-19.4
		C289.2,624.6,289.5,622.7,288,621.3z M389.2,862.3c1.2-1.2,0.9-2.8,0.9-4.2c0-20.5,0-41.1,0-61.6c0-1.4,0.4-3-0.9-4.2
		c0-1.3-0.1-2.7-0.1-4c-0.5-2.7-2.7-1.9-4.4-1.9c-9.3-0.1-18.6,0.3-27.9-0.2c-5.1-0.2-6.8,1.9-6.8,6.5c0,22.2,0,44.5,0,66.7
		c0,1.6-0.4,3.5,1.8,4.1c0.7,3.3,3.1,3.9,6,3.9c9.3-0.1,18.6,0.2,27.9-0.8C388.9,866.2,389.2,864.7,389.2,862.3z M352,685.4
		c10.3,0,20.6,0,31,0c7,0,7,0,6.2-6.8c-0.2-1.5-0.1-3-0.1-4.5c0-21.3-0.1-42.6,0.1-63.9c0-4.5-1.7-5.9-5.8-5.8
		c-8.7,0.1-17.3,0.1-26,0c-2.8,0-4.9,0.7-5.5,3.8c-2.3,0.6-1.8,2.5-1.8,4.1c0,23.1,0,46.1,0,69.2C350.1,683,349.5,685,352,685.4z
		 M474.1,788.2c-0.8-2.9-3.2-1.9-5-1.9c-11.7,0.3-23.5,0.5-35.2,0.4c-12.6-0.1-25.2,0.1-37.8-0.4c-1.7-0.1-3.4,0.1-4.1,2
		c0,26,0,52,0,78c0.6,3.1,3.1,1.9,4.9,1.9c12.4-0.3,24.9-0.2,37.3-0.3c11.1,0,22.2,0,33.4,0.3c1.7,0,3.8,0.8,4.5-1.9
		c2.9-1.4,3-4,2.9-6.8c0-22.2,0-44.4,0-66.6C475,791.3,475.4,789.6,474.1,788.2z M436,605.3c-1.3,0-2.6,0-3.9,0
		c-11.9-1.4-23.9-0.7-35.9-1c-3.3-0.1-4.3,1.1-4.3,4.3c0.1,24.1,0.1,48.3,0,72.4c0,3.6,1.3,4.5,4.7,4.4c11.8-0.2,23.6-0.1,35.5-0.1
		c1.2-0.6,2.4-1.2,3.9-0.9c1.2,1.3,2.8,0.9,4.2,0.9c10.1,0,20.3-0.1,30.4,0.1c3.5,0.1,4.6-1.1,4.5-4.5c-0.1-22.8-0.1-45.5-0.1-68.3
		c0-5.4-2.8-8.2-8.3-8.3c-8.8-0.1-17.6,0-26.4,0C438.8,604.4,437.3,604.6,436,605.3z M352,688.3c-2.4,0.5-1.9,2.4-1.9,4
		c0,29.2,0,58.3,0,87.5c0,1.8-0.5,3.9,1.9,4.8c10.7,0,21.3-0.2,32,0c3.8,0.1,5.2-0.8,5.2-4.9c-0.2-28.8-0.2-57.6,0-86.5
		c0-4.2-1.5-5-5.2-4.9C373.3,688.4,362.6,688.2,352,688.3z M436,784.3c11.4,0,22.8-0.3,34.2,0.2c4.4,0.2,4.8-1.3,4.8-4.9
		c0.1-11.8-1.2-23.5-1-35.3c0.3-17.1,0-34.2,0.2-51.4c0-3.7-1-4.9-4.8-4.8c-11.1,0.2-22.3,0.1-33.4,0.2c-1.3,0-2.6,0-4,0
		c-11.7,0-23.3,0.1-35-0.1c-3.8-0.1-5.2,0.9-5.2,5c0.2,28.8,0.2,57.6,0,86.4c0,4.1,1.4,5,5.2,5c11.7-0.2,23.3-0.1,35-0.1
		C433.3,784.4,434.7,784.3,436,784.3z"/>
	<path class="st2" d="M225.9,957.2c-15.3,0.9-29.4-4-43.7-8.5c-22.6-7-43.9-16.8-64-29.5c-12.3-7.7-24.1-15.9-34-26.5
		c-15.7-16.8-23.9-36.8-22-59.9c1.4-17.9,7.8-34.1,20.1-47.7c5-5.5,10.6-9.9,16.5-14.2c1.9-1.4,3.3-1.9,5.6,0
		c15.7,12.9,30.4,26.8,44.3,41.6c15.7,16.6,30.1,34.4,43.3,53.2c13.9,19.7,25.6,40.7,36.7,62.1c4.3,8.4,7.9,17.1,11.8,25.7
		c1.1,2.5,0.1,3.8-2.7,3.7C233.9,957.2,229.9,957.2,225.9,957.2z"/>
	<path class="st2" d="M288,621.3c1.5,1.3,1.2,3.2,0.8,4.7c-1.5,6.4-0.8,12.9-0.8,19.4c-0.1,104.8,0,209.5,0,314.3c-0.7,0-1.3,0-2,0
		c-0.1-3.3-2.6-2.4-4.4-2.4c-10.2,0-20.3-0.1-30.5,0c-2.5,0-3.8-0.7-4.8-3.2c-6.7-16.8-14.8-32.9-23.5-48.7
		c-10.7-19.6-22.6-38.4-36-56.2c-9.3-12.3-19.4-24-29.6-35.5c-10.5-11.8-22.3-22.4-33.6-33.3c-4.1-3.9-8.6-7.2-12.8-11
		c-2.2-2-2.5-3.8,0.8-5.2c11.1-4.7,22.8-7.8,34.7-7.7c14.4,0.1,28.5,3.4,41.5,10.2c21,11,36.8,27.1,46.7,48.6
		c4.3,9.3,6.8,19.3,9.3,29.3c3.6,14,4,28.4,6.2,42.6c0.2,1.2-0.7,3,1,3.5c1.4,0.4,2.2-1.2,2.9-2.3c5.4-7.7,12.6-13.1,21.8-15.5
		c0.8-0.2,1.6-0.5,2.4-0.6c7.9-0.9,7.9-0.9,7.9-9.1c0-75.9,0-151.9,0-227.8C286,630.6,286.6,625.9,288,621.3z"/>
	<path class="st2" d="M538.1,763.3c0-44.5-0.2-88.9,0-133.4c0.1-19.9-6.2-37.7-15.8-54.8c-8.8-15.6-20.7-28.5-34.7-39.4
		c-8.4-6.5-18.1-11.1-27.8-15.4c-7.4-3.3-15.3-5.1-22.9-7.8c1.4-1.8,3.4-1.1,5.1-1.1c15-0.1,30-0.8,44.9,0.2
		c15.7,1,30.8,4.9,45.3,11.7c15.7,7.5,29.1,17.8,40.6,30.6c9.6,10.6,17.1,22.7,22.3,36.1c4,10.4,7.4,20.8,7.8,32
		c0.1,1.9,2.1,2.6,2,4.4c-2.7-1-5.4-2.1-8.1-3.1c-8.1-3.2-21.1-3.1-26.3,3.8c-2.3,3-3.2,5.8-2.4,9c0.8,3.3,3.8,4.1,6.9,4.5
		c-0.2,0.6-0.3,1.3-0.5,1.9c-6.5,15,1.4,28.7,17.7,31.1c4.1,0.6,7.7-1.3,11.7-1.5c0.1,2.8,0.2,5.5,0.2,8.3c0,0-0.2,0.2-0.2,0.2
		c-4.3,0-8.6-0.1-12.9-0.1c-1.5,0-3.5-0.6-3.9,1.9c-6.9,0.1-12.6,4.1-18.9,6c-5.6,1.7-8.8,5.5-10.9,10.5
		c-3.4,8.2-6.4,16.6-10.2,24.5c-2.1,4.4-1.3,6.6,3,8c-2.8,8.1-5.4,16.3-8.4,24.3C540.7,758.3,541.5,761.9,538.1,763.3z"/>
	<path class="st2" d="M703.4,957.2c-4.7,0-8.5,0-12.3,0c-2.9,0-3.6-1-2.3-3.7c5.9-12.6,11.6-25.3,18.7-37.3
		c7.8-13.1,16-26,25.5-37.9c12.3-15.5,25.2-30.4,40.4-43.2c4.2-3.5,8.2-7.3,12.1-11.1c1.9-1.8,3.1-2,5.5-0.4
		c17,11.1,25.7,27.3,26.6,47c0.7,14.2-4.2,27.3-13.9,38.2c-13.4,15.2-30.5,25.1-48.5,33.8c-12.2,5.9-24.9,10-37.8,13.8
		C712.5,958,707.5,956.8,703.4,957.2z"/>
	<path class="st3" d="M629.9,825.3c1.1,14.7,2.1,29.3,3.2,44c0,1.3,0,2.7-0.1,4c-1.5,1.7-1.4,3.2,0.6,4.4c0.1,9.9,0.1,19.7,0.2,29.6
		c-1.9,10.3-0.4,20.8-1.8,31.1c-1.3,0.3-2.6,0.5-4,0.8c-1.7-0.9-3.5-0.7-5.3-0.7c-0.5-0.8-1-0.8-1.7-0.3c-0.8-0.3-1.5-0.6-2.3-0.9
		c-4.7-14.1-7-28.8-11-43c0.2-0.8,0.5-1.7-0.7-2c-0.5-1.3,0.4-3-1.1-4c0-1.2,0.2-2.4-0.1-3.5c-2.2-9.1-4.3-18.2-7-27.2
		c-1.9-6.2-1.4-13.2-6.2-19.7c-2,16.1-4.7,31.1-5.7,46.4c-1,0.9-1.1,1.9-0.5,3.1c-0.2,1.3-0.3,2.6-0.5,3.9c-1.2,1.2-1.1,2.6-0.6,4.1
		c-0.3,1.6-0.6,3.2-0.9,4.8c-1,0.9-0.5,2.1-0.3,3.1c-1.3,2.6-0.9,5.4-1.2,8.1c-1.2,9.3-1.7,18.6-4,27.8c-4.3,1.2-8.5,1-12.7-0.3
		c-1.3-1.4-3.1-2.2-3.3-4.7c-0.5-10.8-2.1-21.5-2.6-32.2c-0.6-10.9-1.7-21.7-1.4-32.6c0.1-1.1,0.8-2.3-0.7-3.1
		c-0.4-22.3-0.4-44.5,3.1-66.6c19-1.4,38-2.8,57-4.2c2.5-0.2,5-0.6,6.6,2c0.1,2,0.2,4,0.4,6.1c0.7,3.9,1.4,7.8,2,11.8
		c0.2,1.3-0.1,2.7,1.6,3.2c-0.1,0.6-0.2,1.3-0.3,1.9c-1.1,1.5,1.1,2.5,0.8,3.8C629,824.7,629.2,825.1,629.9,825.3z"/>
	<path class="st2" d="M632,938.4c1.4-10.3-0.1-20.8,1.8-31.1c3.1-2.3,5.3-5.5,8.8-7.4c11.3-6.1,25.1-3.7,34.5,8.1
		c0.8,1,1.1,3.4,3,2.5c1.5-0.7,0.6-2.7,0.7-4.1c1.8-22.3,5-44.3,18.2-63c10.7-15.2,25.6-25.4,44.2-29c12.6-2.5,25-1.4,36.9,3.9
		c3.7,1.6,3.1,3.5,0.6,5.5c-30,24.4-54.5,53.7-74.3,86.8c-7.7,12.9-15.3,25.9-20.3,40.2c-1.7,4.8-4.3,7.1-9.9,6.7
		c-9.8-0.6-19.6-0.2-29.5-0.2c-7.2,0-7.8-0.3-11.7-5.9c-1.2,1.8,1.3,4.9-2.1,5.9c-0.8-2.9,1-6.2-1.3-8.9c-1.2-2.6-1.1-5.3-0.6-8.1
		C631.9,939.9,632.1,939.2,632,938.4z"/>
	<path class="st4" d="M624.8,797.4c-1.6-2.6-4.1-2.1-6.6-2c-19,1.4-38,2.8-57,4.2c-1.1-5.9,2-11.3,2-17.1c2.3-3.1,1.9-6.6,1.3-10.1
		c0.1-1.8,0.1-3.5,0.2-5.3c3.1-1,0.9-3.2,1-4.8c0.1-2,0.1-4.1,0.2-6.1c0.8-0.5,0.8-1.2,0.4-2c0.2-3.3,0.4-6.7,0.6-10
		c1.8-1.8,0.8-3.9,0.7-5.9c0.6-2.3-0.5-4.3-2.4-4.6c-5.1-0.8-10-2.7-15.2-2.3c-4.3-1.5-5.1-3.6-3-8c3.8-8,6.8-16.4,10.2-24.5
		c2.1-5.1,5.3-8.8,10.9-10.5c6.3-2,12-5.9,18.9-6c5.6,0,11.2-0.1,16.8-0.1c0.7,0,1.4,0,2.1,0c7.5,2.1,13.8,6.6,20.4,10.3
		c7.9,4.5,6.7,13.6,8.5,21c0,5.4,0.7,10.8,2.9,15.8c0.1,1.8-0.3,3.8,0.5,5.3c1.9,4,0,5.6-3.4,6.7c-0.3,0.1-0.7,0.2-1,0.3
		c-2.4-0.4-4,0.3-4,2.9c0.1,10-2.9,19.9-2,29.9c-3.2,5.7-1.6,11.9-1.8,17.8C626,794,626.1,795.9,624.8,797.4z"/>
	<path class="st3" d="M631.9,948.4c2.3,2.7,0.5,6,1.3,8.9c-0.4,2,0.8,2.9,2.5,2.9c19.8-0.3,39.5,0.6,59.3-0.5c7.4,1,14.8,1,22.2,0.1
		c12.8,1,25.6,0.3,38.4,0.4c10.3,0.1,20.7,0,31,0c1.7,0,3.5-0.5,6,1.6c-214.7,0-428.4,0-642.5,0c1.7-2.5,3.9-1.6,5.7-1.6
		c41.5-0.1,83-0.1,124.4-0.1c2,0,4-0.2,5.9-0.4c0.7,0,1.3,0,2,0c1.7,0.8,3.6,0.5,5.4,0.5c79.8,0,159.5,0,239.3,0
		c1.8,0,3.7,0.6,5.3-0.7c0.8,0,1.6,0,2.5,0c3.8,0.1,7.4,0.7,9-4.7c1.1-3.6,5-5.3,9.2-5.4c2.7-0.1,5.6,0.8,8.2-0.8c4,1,8,0.6,12,0.2
		c2.8,1.7,1.5,4.4,1.7,6.8c0.2,2-0.1,4.6,2.6,4.5c7.2-0.5,16.2,4.1,20.1-6.6c0.6-1.5,3-1.3,3.6-3.1c4.2-1.7,8.6-0.4,12.9-1.1
		C623.9,949.1,628,950.3,631.9,948.4z"/>
	<path class="st3" d="M574.9,640.5c-3.1-0.4-6.1-1.2-6.9-4.5c-0.8-3.2,0.2-6,2.4-9c5.2-6.8,18.2-7,26.3-3.8c2.7,1.1,5.4,2.1,8.1,3.1
		c2.2,2.9,5.8,3.8,8.2,6.8c5.9,7.2,3.4,15.3,3.6,23.1c-1.1,0.3-0.8,1.3-0.9,2c-1.4,1.1-2.9,2-2.9,4c-1.4,0.5-2,1.5-2.1,3
		c-1.3,1.3-2.6,2.7-3.9,4c-1,0.4-2.1,0.8-3.1,1.2c-7.2-0.5-9.1-3.2-7.3-10.3c1.6-6.4-1.1-9.1-7.4-7.4c-5.4,1.4-7.2,0.3-7-5.2
		C582.2,642.3,579.6,640.6,574.9,640.5z"/>
	<path class="st5" d="M624.8,797.4c1.3-1.5,1.2-3.4,1.3-5.1c3.5-5.7,1.5-11.9,1.8-17.8c-0.9-10.1,2-19.9,2-29.9c0-2.7,1.6-3.4,4-2.9
		c-0.3,6.3-0.5,12.6,1.2,18.7c0.1,4.3,0.1,8.7,0.2,13c0.1,5.3-1.4,10.7,0.9,15.9c0,1,0,2.1,0,3.1c0,4.5-0.1,9.1-0.1,13.6
		c0,1.5-0.1,3,1.8,3.4c0.4,1.3,0.9,2.6,1.3,3.9c0,2,0,4,0,6c-0.4,1.9-1.7,3.1-3.2,4.1c-1.3-0.1-1.9,0.6-2.2,1.7
		c-1.3,0-2.6,0.1-3.9,0.1c-0.6-0.1-0.8-0.5-0.7-1.2c1-1.5,1.2-2.9-0.8-3.8c0.1-0.6,0.2-1.3,0.3-1.9c-0.3-5.2,0.7-10.7-3.6-14.9
		C625.1,801.4,624.9,799.4,624.8,797.4z"/>
	<path class="st5" d="M574.9,640.5c4.6,0,7.3,1.8,7.2,7c-0.2,5.4,1.6,6.6,7,5.2c6.4-1.6,9.1,1.1,7.4,7.4c-1.8,7.1,0.1,9.8,7.3,10.3
		c0,0.3,0,0.6,0,0.9c-0.1,0.2-0.1,0.5-0.1,0.7c-3.9,0.2-7.5,2.1-11.7,1.5c-16.3-2.4-24.2-16.1-17.7-31.1
		C574.7,641.8,574.8,641.2,574.9,640.5z"/>
	<path class="st2" d="M717.1,959.7c-7.4,0.9-14.8,0.9-22.2-0.1c0.5-1.4,1.7-1.4,2.9-1.4c5.3,0,10.6,0,15.9,0
		C715,958.2,716.4,958.2,717.1,959.7z"/>
	<path class="st1" d="M637.8,729.2c-2.3-5-2.9-10.3-2.9-15.8C637.9,718.3,638.7,723.6,637.8,729.2z"/>
	<path class="st2" d="M635.1,760.2c-1.7-6.2-1.6-12.4-1.2-18.7c0.3-0.1,0.7-0.2,1-0.3c-0.2,4.8,1.7,9.5,1.1,14.3
		C635.8,757.1,636.5,758.9,635.1,760.2z"/>
	<path class="st2" d="M637.9,809.4c-2-0.4-1.9-2-1.8-3.4c0-4.5,0.1-9.1,0.1-13.6c2.4,0.6,1.7,2.6,1.7,4.1
		C638,800.7,637.9,805,637.9,809.4z"/>
	<path class="st2" d="M636.2,789.2c-2.3-5.2-0.8-10.6-0.9-15.9c2.6,0.8,1.7,3,1.6,4.6C636.7,781.7,637.9,785.5,636.2,789.2z"/>
	<path class="st2" d="M639.2,819.3c0-2,0-4,0-6C641.9,815.3,642,817.3,639.2,819.3z"/>
	<path class="st2" d="M289.1,614.3c1.4,1.8,1.4,3.2-1,4.2C288.1,617,287.5,615.4,289.1,614.3z"/>
	<path class="st2" d="M633,873.3c0-1.3,0-2.7,0.1-4c2.6,0.8,2.2,2.3,1,4C633.7,873.3,633.4,873.3,633,873.3z"/>
	<path class="st1" d="M633,873.3c0.3,0,0.7,0,1,0c-0.1,1.5-0.3,2.9-0.4,4.4C631.6,876.5,631.6,875,633,873.3z"/>
	<path class="st2" d="M610.8,665.3c0-1.4,0.7-2.5,2.1-3C614.8,665.2,612.3,664.8,610.8,665.3z"/>
	<path class="st2" d="M319,553.3c0,1.9-1.1,2.8-2.9,3C316.1,554.5,317.1,553.5,319,553.3z"/>
	<path class="st2" d="M603.9,671.3c0-0.3,0-0.6,0-0.9c1-0.4,2.1-0.8,3.1-1.2C606.9,671.4,605.4,671.4,603.9,671.3z"/>
	<path class="st2" d="M633.8,825.2c0.3-1.1,0.9-1.9,2.2-1.7C635.8,824.8,635.1,825.3,633.8,825.2z"/>
	<path class="st2" d="M606,682.2c-0.7,0-1.4,0-2.1,0c0-0.6,0-1.1-0.1-1.7c0,0,0.2-0.2,0.2-0.2C605.2,680.4,605.9,680.9,606,682.2z"
		/>
	<path class="st2" d="M615.8,658.3c0.1-0.7-0.1-1.7,0.9-2C618.6,657.9,617.2,658.1,615.8,658.3z"/>
	<path class="st2" d="M566.9,948.6c-2.6,1.6-5.5,0.7-8.2,0.8c-4.2,0.1-8.1,1.9-9.2,5.4c-1.6,5.4-5.2,4.7-9,4.7c-0.8,0-1.6,0-2.5,0
		c0-50.4,0-100.8-0.1-151.2c5.2-3,4.4-8.3,5.2-13.2c1.7-10.4,8.1-19,11.5-28.9c2.9-8.2,6.9-16,10.4-24c0.6,0.7,1.3,1.3,1.9,2
		c-0.2,3.3-0.4,6.7-0.6,10c-1.1,0.5-1.7,1.1-0.4,2c-0.1,2-0.1,4.1-0.2,6.1c-2.8,1.1-2,2.9-1,4.8c-0.1,1.8-0.1,3.5-0.2,5.3
		c-1.7,3.2-2,6.6-1.3,10.1c0,5.8-3.1,11.2-2,17.1c-3.5,22.1-3.4,44.3-3.1,66.6c-1.7,1.4-1.4,2.5,0.7,3.1
		c-0.3,10.9,0.8,21.8,1.4,32.6c0.6,10.7,2.1,21.5,2.6,32.2c0.1,2.4,1.9,3.3,3.3,4.7C566.4,942.1,566.7,945.3,566.9,948.6z"/>
	<path class="st0" d="M432,784.4c-11.7,0-23.3-0.1-35,0.1c-3.8,0.1-5.2-0.8-5.2-5c0.2-28.8,0.2-57.6,0-86.4c0-4.1,1.4-5,5.2-5
		c11.7,0.2,23.3,0.1,35,0.1C432,720.3,432,752.3,432,784.4z"/>
	<path class="st0" d="M436,688.3c11.1,0,22.3,0.1,33.4-0.2c3.8-0.1,4.8,1.2,4.8,4.8c-0.2,17.1,0.2,34.2-0.2,51.4
		c-0.2,11.8,1.1,23.5,1,35.3c0,3.6-0.5,5.1-4.8,4.9c-11.4-0.5-22.8-0.2-34.2-0.2C436,752.3,436,720.3,436,688.3z"/>
	<path class="st0" d="M352,688.3c10.7,0,21.3,0.1,32-0.1c3.7-0.1,5.3,0.7,5.2,4.9c-0.2,28.8-0.2,57.6,0,86.5c0,4.2-1.4,5-5.2,4.9
		c-10.7-0.2-21.3-0.1-32,0C352,752.4,352,720.3,352,688.3z"/>
	<path class="st0" d="M432,685.4c-11.8,0-23.6-0.1-35.5,0.1c-3.4,0.1-4.7-0.8-4.7-4.4c0.1-24.1,0.1-48.3,0-72.4c0-3.2,1-4.4,4.3-4.3
		c12,0.3,23.9-0.4,35.9,1C432,632,432,658.7,432,685.4z"/>
	<path class="st0" d="M436,605.3c1.3-0.7,2.8-1,4.3-1c8.8,0,17.6-0.1,26.4,0c5.5,0.1,8.3,2.9,8.3,8.3c0,22.8-0.1,45.5,0.1,68.3
		c0,3.5-1.1,4.6-4.5,4.5c-10.1-0.2-20.3-0.1-30.4-0.1c-1.4,0-3,0.4-4.2-0.9C435.9,658.1,436,631.7,436,605.3z"/>
	<path class="st0" d="M392,866.3c0-26,0-52,0-78c11.6,0,23.3,0.1,34.9-0.1c3.7-0.1,5.2,0.8,5.2,4.9c-0.2,22.8-0.2,45.5,0,68.3
		c0,4.2-1.5,5-5.2,4.9C415.3,866.2,403.6,866.3,392,866.3z"/>
	<path class="st0" d="M474.1,788.2c1.3,1.4,0.9,3.1,0.9,4.7c0,22.2,0,44.4,0,66.6c0,2.8-0.1,5.3-2.9,6.8c-10.3,0-20.6-0.2-30.9,0
		c-3.7,0.1-5.3-0.7-5.2-4.9c0.2-22.8,0.2-45.6,0-68.4c0-3.7,0.9-4.9,4.7-4.9C451.8,788.4,463,788.2,474.1,788.2z"/>
	<path class="st0" d="M351.9,608.2c0.6-3.1,2.7-3.9,5.5-3.8c8.7,0,17.3,0.1,26,0c4.1-0.1,5.9,1.3,5.8,5.8
		c-0.2,21.3-0.1,42.6-0.1,63.9c0,1.5-0.1,3,0.1,4.5c0.8,6.8,0.8,6.8-6.2,6.8c-10.3,0-20.6,0-31,0C352,659.7,351.9,633.9,351.9,608.2
		z"/>
	<path class="st0" d="M389.1,788.3c0,1.3,0.1,2.7,0.1,4c-1.7,1.2-1.1,3-1.1,4.6c0,20.3,0,40.6,0,60.9c0,1.6-0.6,3.4,1.1,4.6
		c0.1,2.4-0.3,3.9-3.4,4.2c-9.3,1-18.6,0.7-27.9,0.8c-2.9,0-5.3-0.6-6-3.9c0-23.3,0.2-46.6,0-69.8c0-4,0.9-5.5,5.2-5.4
		C367.8,788.5,378.4,788.3,389.1,788.3z"/>
	<path class="st5" d="M565.1,742.2c-3.5,8-7.5,15.8-10.4,24c-3.4,9.8-9.8,18.4-11.5,28.9c-0.8,4.8,0,10.1-5.2,13.2
		c-2.9,1-5.8,1.2-8.8,1c-7.3-5.4-7.7-7.5-2.9-16.9c1.3-0.1,2.2-0.8,2.7-1.9c3.5-8.9,7.2-17.7,9.1-27.1c3.5-1.4,2.7-5,3.6-7.6
		c3-8,5.6-16.2,8.4-24.3c5.2-0.4,10.1,1.5,15.2,2.3c2,0.3,3,2.3,2.4,4.6C565.6,738.8,565.4,740.5,565.1,742.2z"/>
	<path class="st2" d="M474.1,788.2c-11.1,0-22.3,0.2-33.4,0c-3.8-0.1-4.8,1.2-4.7,4.9c0.1,22.8,0.2,45.6,0,68.4c0,4.2,1.5,5,5.2,4.9
		c10.3-0.2,20.6,0,30.9,0c-0.6,2.6-2.8,1.9-4.5,1.9c-11.1-0.3-22.3-0.4-33.4-0.3c-12.4,0.1-24.9,0-37.3,0.3c-1.7,0-4.2,1.2-4.9-1.9
		c11.6,0,23.3-0.1,34.9,0.1c3.7,0.1,5.2-0.7,5.2-4.9c-0.2-22.8-0.2-45.5,0-68.3c0-4.2-1.4-5-5.2-4.9c-11.6,0.2-23.3,0.1-34.9,0.1
		c0.8-1.9,2.4-2.1,4.1-2c12.6,0.5,25.2,0.3,37.8,0.4c11.7,0.1,23.5-0.1,35.2-0.4C470.9,786.3,473.3,785.3,474.1,788.2z"/>
	<path class="st4" d="M526.3,792.3c-4.8,9.4-4.4,11.6,2.9,16.9c-2.5,5.1-9.5,8.5-14.6,7c-7-1.9-11.6-8-11.1-14.6
		c0.5-6.6,5.3-11.8,11.9-12.4C519.2,789,523.3,788.9,526.3,792.3z"/>
	<path class="st2" d="M436,688.3c0,32,0,64,0,96c-1.3,0-2.6,0-3.9,0c0-32,0-64.1,0-96.1C433.3,688.3,434.7,688.3,436,688.3z"/>
	<path class="st2" d="M436,605.3c0,26.4,0,52.8-0.1,79.1c-1.4-0.4-2.7,0.3-3.9,0.9c0-26.7,0-53.4,0-80.1
		C433.3,605.3,434.7,605.3,436,605.3z"/>
	<path class="st2" d="M389.1,788.3c-10.6,0-21.3,0.2-31.9-0.1c-4.3-0.1-5.2,1.4-5.2,5.4c0.1,23.3,0,46.6,0,69.8
		c-2.2-0.6-1.8-2.5-1.8-4.1c0-22.2,0-44.5,0-66.7c0-4.6,1.6-6.7,6.8-6.5c9.3,0.4,18.6,0.1,27.9,0.2
		C386.3,786.3,388.5,785.5,389.1,788.3z"/>
	<path class="st2" d="M352,688.3c0,32.1,0,64.1,0,96.2c-2.4-0.9-1.9-2.9-1.9-4.8c0-29.2,0-58.3,0-87.5
		C350.1,690.7,349.5,688.7,352,688.3z"/>
	<path class="st2" d="M351.9,608.2c0,25.7,0.1,51.4,0.1,77.2c-2.5-0.4-1.9-2.4-1.9-3.9c0-23.1,0-46.1,0-69.2
		C350.1,610.7,349.6,608.8,351.9,608.2z"/>
	<path class="st2" d="M389.2,862.3c-1.7-1.2-1.1-3-1.1-4.6c0-20.3,0-40.6,0-60.9c0-1.6-0.6-3.4,1.1-4.6c1.3,1.2,0.9,2.8,0.9,4.2
		c0,20.5,0,41.1,0,61.6C390,859.5,390.4,861.1,389.2,862.3z"/>
	<path class="st1" d="M603.8,680.5c0,0.6,0,1.1,0.1,1.7c-5.6,0-11.2,0.1-16.8,0.1c0.4-2.5,2.4-1.9,3.9-1.9
		C595.2,680.4,599.5,680.4,603.8,680.5z"/>
	<path class="st2" d="M607.1,950.3c-0.6,1.8-3.1,1.5-3.6,3.1c-3.9,10.7-12.9,6.1-20.1,6.6c-2.7,0.2-2.5-2.4-2.6-4.5
		c-0.2-2.3,1.1-5.1-1.7-6.8c0-3.2-0.1-6.4-0.1-9.6c2.3-9.1,2.9-18.5,4-27.8c0.3-2.7,0-5.5,1.2-8.1c2.2-0.8,2.5-1.8,0.3-3.1
		c0.3-1.6,0.6-3.2,0.9-4.8c2.2-1.1,2-2.5,0.6-4.1c0.2-1.3,0.3-2.6,0.5-3.9c1.8-0.8,1.9-1.8,0.5-3.1c1-15.3,3.7-30.4,5.7-46.4
		c4.8,6.5,4.3,13.5,6.2,19.7c2.7,9,4.7,18.1,7,27.2c0.3,1.1,0.1,2.3,0.1,3.5c-1.5,0.1-3.1-0.1-2.4,2.4c0.5,1.9,0.4,3.9,0.4,5.9
		c0,16.3,0,32.6,0,48.8C604,947.7,603.3,950.5,607.1,950.3z M603.4,885.7c0.1-0.3,0.1-0.5,0.2-0.7c-0.1,0-0.2,0.1-0.4,0.1
		C603.3,885.2,603.3,885.4,603.4,885.7z"/>
	<path class="st0" d="M607.1,950.3c-3.8,0.2-3.1-2.6-3.1-4.8c0-16.3,0-32.6,0-48.8c0-2,0.1-4-0.4-5.9c-0.7-2.6,0.9-2.3,2.4-2.4
		c1.5,1,0.5,2.7,1.1,4c-1.6,1.4-0.6,1.8,0.7,2c4,14.3,6.3,29,11,43c0,0,0.1,0,0.1,0c-1.2,0.3-0.6,0.8-0.1,1.3
		c0.2,3.6,1.6,7,1.2,10.6C615.7,949.9,611.3,948.6,607.1,950.3z"/>
	<path class="st5" d="M620,949.2c0.4-3.6-1-7-1.2-10.6c0-0.4,0.1-0.9,0.1-1.3c0,0-0.1,0-0.1,0c0.8,0.3,1.5,0.6,2.3,0.9
		c0.4,0.9,1,1.2,1.7,0.3c1.8,0,3.6-0.2,5.3,0.7c0.7,1.4,2.1,0.9,3.2,1.2c-0.5,2.7-0.6,5.5,0.6,8.1C628,950.3,623.9,949.1,620,949.2z
		"/>
	<path class="st5" d="M578.8,939.2c0,3.2,0.1,6.4,0.1,9.6c-4,0.5-8,0.8-12-0.2c-0.3-3.3-0.5-6.5-0.8-9.8
		C570.3,940.2,574.6,940.4,578.8,939.2z"/>
	<path class="st1" d="M625.2,803.4c4.3,4.3,3.2,9.8,3.6,14.9c-1.7-0.5-1.4-1.9-1.6-3.2C626.6,811.3,625.9,807.4,625.2,803.4z"/>
	<path class="st1" d="M586,891.3c1.4,1.6,1.6,3-0.6,4.1C584.9,893.9,584.8,892.5,586,891.3z"/>
	<path class="st1" d="M631.2,940.3c-1.1-0.3-2.5,0.3-3.2-1.2c1.3-0.3,2.6-0.5,4-0.8C632.1,939.2,631.9,939.9,631.2,940.3z"/>
	<path class="st1" d="M628.5,820.3c2,0.9,1.8,2.3,0.8,3.8C629.5,822.7,627.4,821.8,628.5,820.3z"/>
	<path class="st1" d="M587,884.3c1.4,1.3,1.3,2.3-0.5,3.1C585.9,886.2,585.9,885.2,587,884.3z"/>
	<path class="st1" d="M558.8,869.3c-2.1-0.6-2.3-1.6-0.7-3.1C559.7,867,558.9,868.2,558.8,869.3z"/>
	<path class="st1" d="M584.5,900.2c2.1,1.3,1.8,2.3-0.3,3.1C584,902.2,583.5,901.1,584.5,900.2z"/>
	<path class="st1" d="M622.8,938.5c-0.7,0.9-1.3,0.6-1.7-0.3C621.7,937.7,622.3,937.7,622.8,938.5z"/>
	<path class="st2" d="M607.8,894.3c-1.4-0.3-2.4-0.7-0.7-2C608.3,892.6,607.9,893.4,607.8,894.3z"/>
	<path class="st1" d="M627.9,774.4c-0.3,6,1.7,12.2-1.8,17.8C626.3,786.2,624.7,780.1,627.9,774.4z"/>
	<path class="st1" d="M563.3,782.5c-0.6-3.5-0.3-6.9,1.3-10.1C565.2,776,565.6,779.4,563.3,782.5z"/>
	<path class="st1" d="M565.1,742.2c0.3-1.7,0.5-3.5,2.7-3.9c0,2,1,4.1-0.7,5.9C566.4,743.6,565.7,742.9,565.1,742.2z"/>
	<path class="st1" d="M564.8,767.2c-1-1.9-1.8-3.7,1-4.8C565.7,764,567.9,766.2,564.8,767.2z"/>
	<path class="st1" d="M566,756.2c-1.3-0.9-0.8-1.5,0.4-2C566.8,755,566.8,755.7,566,756.2z"/>
	<path class="st0" d="M603.4,885.7c-0.1-0.3-0.1-0.4-0.2-0.6c0.1,0,0.2-0.1,0.4-0.1C603.5,885.2,603.5,885.4,603.4,885.7z"/>
	<path class="st1" d="M618.9,937.3c0,0.4-0.1,0.9-0.1,1.3C618.2,938.1,617.7,937.6,618.9,937.3z"/>
</g>
</svg>
